PathFileType	4	(X/Y/Z)	./resultDataOpenSim/trcMotMarkerGrf/sub09/qtm-13-07.trc
DataRate	CameraRate	NumFrames	NumMarkers	Units	OrigDataRate	OrigDataStartFrame	OrigNumFrames
250.000000	250.000000	5	24	m	250.000000	121	483
Frame#	Time	L.Toe.Tip			R.Toe.Tip			L.Ankle.Lat			R.Ankle.Lat			L.Ankle.Med			R.Ankle.Med			L.Heel			R.Heel			L.Knee.Lat			R.Knee.Lat			L.Knee.Med			R.Knee.Med			L.Thigh.Upper			R.Thigh.Upper			L.ASIS			R.ASIS			V.Sacral			L.Acromium			R.Acromium			C7			L.Elbow			R.Elbow			L.Wrist.Lat			R.Wrist.Lat
		X1	Y1	Z1	X2	Y2	Z2	X3	Y3	Z3	X4	Y4	Z4	X5	Y5	Z5	X6	Y6	Z6	X7	Y7	Z7	X8	Y8	Z8	X9	Y9	Z9	X10	Y10	Z10	X11	Y11	Z11	X12	Y12	Z12	X13	Y13	Z13	X14	Y14	Z14	X15	Y15	Z15	X16	Y16	Z16	X17	Y17	Z17	X18	Y18	Z18	X19	Y19	Z19	X20	Y20	Z20	X21	Y21	Z21	X22	Y22	Z22	X23	Y23	Z23	X24	Y24	Z24

121	0.48	-0.29960266	0.066312827	-0.037393943	-0.65098701	0.039251323	0.082477454	-0.4498914	0.093102453	-0.066262467	-0.79852045	0.056198153	0.10495694	-0.42404798	0.11209973	0.027307288	-0.78290082	0.092024911	0.013204387	-0.51369641	0.050509179	-0.013256443	-0.86449688	0.035086612	0.052268369	-0.42698122	0.51149902	-0.10540058	-0.66051493	0.49615518	0.1684214	-0.42540503	0.50903437	0.019455797	-0.67626629	0.48571604	0.039106226	-0.60453882	0.89363664	-0.14955361	-0.65192747	0.90218961	0.22223468	-0.5360843	0.97960024	-0.083268277	-0.54579915	0.98320725	0.15551765	-0.70299921	1.0379466	0.014918617	-0.53918659	1.4325053	-0.13568709	-0.5645539	1.4403937	0.19290545	-0.62073569	1.4879845	0.027276849	-0.67548629	1.0912997	-0.17535668	-0.67028429	1.0772879	0.27228619	-0.56747796	0.85425569	-0.21063807	-0.42880851	0.93291503	0.24362827
122	0.484	-0.27858691	0.068435401	-0.036668125	-0.65094115	0.039179484	0.082523758	-0.4296369	0.091361759	-0.066057113	-0.79833807	0.056179332	0.10485638	-0.40453372	0.11126597	0.027600958	-0.78265706	0.092031733	0.013117316	-0.49220976	0.047181783	-0.013050099	-0.86446856	0.035240953	0.052154119	-0.4199273	0.51037342	-0.10545934	-0.65922442	0.49591809	0.16884031	-0.41844529	0.50798112	0.019363025	-0.67415435	0.48542435	0.039188466	-0.59761506	0.89251292	-0.1494872	-0.64629703	0.90150252	0.22234456	-0.52934719	0.97853941	-0.083156699	-0.53980272	0.98208733	0.15568342	-0.69545626	1.0366257	0.013476771	-0.53321786	1.4316793	-0.13574218	-0.55814811	1.4393149	0.19291903	-0.61457699	1.4869758	0.027395652	-0.66943525	1.0906888	-0.17538195	-0.6627957	1.0758402	0.27270963	-0.56318714	0.85325584	-0.21133008	-0.42037109	0.93313592	0.24292351
123	0.488	-0.25776807	0.07086209	-0.035896033	-0.65089209	0.039107337	0.082564157	-0.40950206	0.089931554	-0.0658607	-0.79791016	0.056294581	0.10461989	-0.38515865	0.11074254	0.027916844	-0.78240361	0.092038281	0.012997173	-0.47080709	0.044241872	-0.012846395	-0.86444556	0.035398752	0.052009828	-0.41300474	0.50909861	-0.10557756	-0.65763441	0.49555926	0.1691084	-0.41145735	0.50681578	0.019309351	-0.67199021	0.48512038	0.039175865	-0.59036808	0.89129774	-0.14938925	-0.64067776	0.90075439	0.22244219	-0.52259992	0.97738482	-0.083028023	-0.53355115	0.98097109	0.15586034	-0.6876829	1.0354002	0.013148583	-0.52722522	1.4307736	-0.135795	-0.5516863	1.4381387	0.19291372	-0.60840416	1.4858863	0.027492695	-0.66320963	1.0899634	-0.17552163	-0.65515904	1.0742773	0.2730374	-0.55874805	0.85216935	-0.21205967	-0.41197673	0.93325351	0.24220687
124	0.492	-0.23718507	0.073583464	-0.035077717	-0.65084051	0.039029357	0.082600784	-0.38950404	0.088811135	-0.065655936	-0.7976734	0.056909045	0.10436813	-0.36594191	0.11055227	0.02828449	-0.78214919	0.092043314	0.012851938	-0.4495729	0.041719565	-0.012699314	-0.86442552	0.035560482	0.051830095	-0.40619734	0.50768697	-0.10574252	-0.65571243	0.49503295	0.1691802	-0.40440134	0.50555262	0.019349199	-0.66974619	0.48480504	0.039080024	-0.58291859	0.88998984	-0.14926936	-0.63507096	0.89994678	0.22253065	-0.51584688	0.97613961	-0.082878149	-0.52708133	0.97986722	0.15604384	-0.68022564	1.0343451	0.014233942	-0.52121505	1.4297803	-0.13585154	-0.54518953	1.4368628	0.19289443	-0.60221738	1.484721	0.027573309	-0.65711646	1.0891503	-0.17555488	-0.64737416	1.0725989	0.27326497	-0.55415656	0.85101411	-0.21281876	-0.40362333	0.93327385	0.24148256
125	0.496	-0.21688332	0.07657814	-0.034226366	-0.65078905	0.038940945	0.082636348	-0.36968686	0.087995154	-0.065443851	-0.79794382	0.058163234	0.10421544	-0.34690344	0.11070603	0.028685392	-0.78189	0.092046497	0.0126854	-0.42854372	0.039590169	-0.012588069	-0.86440263	0.035726575	0.051602741	-0.39945463	0.506174	-0.10592681	-0.65351367	0.49432179	0.16905197	-0.39732259	0.50415582	0.019480291	-0.66740398	0.48446453	0.03898672	-0.57559082	0.88856943	-0.14915403	-0.62948325	0.89909263	0.22261285	-0.50908401	0.97480658	-0.08270442	-0.52049919	0.97874992	0.15622606	-0.67335567	1.0333438	0.015948367	-0.51519408	1.42869	-0.13592592	-0.53869659	1.4355019	0.19287273	-0.59601455	1.4834797	0.027643447	-0.65123363	1.0882577	-0.17543609	-0.63954622	1.0708373	0.27345764	-0.54945446	0.84981549	-0.21356919	-0.3953133	0.93319813	0.24074557
